<svg id="Capa_1" data-name="Capa 1" xmlns="http://www.w3.org/2000/svg" viewBox="0 0 200 47.41"><defs><style>.cls-1{fill:#fff;}</style></defs><polygon class="cls-1" points="71.54 26.84 64.29 13.83 61.61 13.83 61.61 33.86 64.15 33.86 64.15 18.57 70.78 30.33 72.33 30.33 78.93 18.57 78.93 33.86 81.47 33.86 81.47 13.83 78.82 13.83 71.54 26.84"/><path class="cls-1" d="M96,20A7.06,7.06,0,0,0,92.16,19a7.4,7.4,0,0,0-6.57,3.78,7.81,7.81,0,0,0,1.14,9.12,7.32,7.32,0,0,0,2.37,1.65,7.45,7.45,0,0,0,3,.6,7.84,7.84,0,0,0,2.78-.48,7,7,0,0,0,2.23-1.32,5.81,5.81,0,0,0,1.43-1.92l-2.15-.59a3.6,3.6,0,0,1-1.65,1.77,5.13,5.13,0,0,1-2.55.68,4.67,4.67,0,0,1-2.37-.63,5,5,0,0,1-1.79-1.73,5.52,5.52,0,0,1-.81-2.52H99.47a3,3,0,0,0,0-.41c0-.17,0-.36,0-.54a7.58,7.58,0,0,0-.91-3.66A7.37,7.37,0,0,0,96,20Zm-8.87,5.64a5.32,5.32,0,0,1,.8-2.51,4.94,4.94,0,0,1,1.79-1.7,5,5,0,0,1,4.83,0,5,5,0,0,1,1.8,1.7,5.23,5.23,0,0,1,.82,2.51Z" transform="translate(0 0)"/><path class="cls-1" d="M108.35,31.6a3.49,3.49,0,0,1-1.35.26,1.74,1.74,0,0,1-1.13-.39,1.51,1.51,0,0,1-.53-1.17V21.16h3.29V19.22h-3.29V14.31h-2.49v4.91h-2v1.94h2v9.91a3.11,3.11,0,0,0,.45,1.73,2.7,2.7,0,0,0,1.22,1,4.27,4.27,0,0,0,1.66.32,6.56,6.56,0,0,0,1.5-.17,7.91,7.91,0,0,0,1.24-.39l.84-.37-.59-2C109,31.31,108.77,31.43,108.35,31.6Z" transform="translate(0 0)"/><path class="cls-1" d="M119,19a5.09,5.09,0,0,0-2.64,1.06,6.93,6.93,0,0,0-2,2.47V19.22h-2.31V33.86h2.48V24.78a5,5,0,0,1,2-2.53,6.06,6.06,0,0,1,3.29-.94V19.05a1.65,1.65,0,0,0-.34,0Z" transform="translate(0 0)"/><path class="cls-1" d="M133.78,21.25a7.54,7.54,0,0,0-2.35-1.66,7.88,7.88,0,0,0-6,0,7.31,7.31,0,0,0-3.87,4.08,7.84,7.84,0,0,0-.54,2.91,7.76,7.76,0,0,0,.54,2.88,7.29,7.29,0,0,0,1.52,2.43,7.2,7.2,0,0,0,2.34,1.65,7.37,7.37,0,0,0,3,.6,7.45,7.45,0,0,0,3-.6,7.18,7.18,0,0,0,2.36-1.65,7.62,7.62,0,0,0,1.52-2.43,7.76,7.76,0,0,0,.54-2.88,7.84,7.84,0,0,0-.54-2.91A7.3,7.3,0,0,0,133.78,21.25Zm-1.12,8.05a5.31,5.31,0,0,1-1.78,2,4.41,4.41,0,0,1-2.47.73,4.5,4.5,0,0,1-2.46-.71,5.27,5.27,0,0,1-1.76-1.95,5.65,5.65,0,0,1-.66-2.73,5.72,5.72,0,0,1,.66-2.76,5.41,5.41,0,0,1,1.76-2,4.29,4.29,0,0,1,2.46-.74,4.48,4.48,0,0,1,2.47.72,5.43,5.43,0,0,1,1.78,2,5.68,5.68,0,0,1,.66,2.73A5.76,5.76,0,0,1,132.66,29.3Z" transform="translate(0 0)"/><path class="cls-1" d="M149.09,25.79h4.31v2.74a9.57,9.57,0,0,1-2.62,2.31,6.63,6.63,0,0,1-3.28.87,6,6,0,0,1-2.73-.62,7.08,7.08,0,0,1-2.23-1.7,7.89,7.89,0,0,1-1.48-2.51,8.69,8.69,0,0,1-.52-3,9.32,9.32,0,0,1,.46-2.94,8.07,8.07,0,0,1,1.36-2.52,6.6,6.6,0,0,1,2.13-1.77,5.88,5.88,0,0,1,2.76-.65,6.87,6.87,0,0,1,3.36.85,5.91,5.91,0,0,1,2.4,2.6L155,18.06a7.8,7.8,0,0,0-2.85-3.16,9.59,9.59,0,0,0-8.5-.41,9.11,9.11,0,0,0-3,2.22A10.65,10.65,0,0,0,138,23.79a10.29,10.29,0,0,0,.71,3.76,10.82,10.82,0,0,0,2,3.28,9.69,9.69,0,0,0,3,2.31,8,8,0,0,0,9.77-2v2.74h2.14v-10h-6.45Z" transform="translate(0 0)"/><rect class="cls-1" x="159.01" y="13.27" width="2.48" height="3.1"/><rect class="cls-1" x="159.01" y="19.13" width="2.48" height="14.72"/><path class="cls-1" d="M173.72,26.42c-.81-.32-1.78-.63-2.89-1-.71-.22-1.32-.43-1.82-.61a3,3,0,0,1-1.13-.69,1.56,1.56,0,0,1-.38-1.1,1.74,1.74,0,0,1,.48-1.31,2.7,2.7,0,0,1,1.22-.64,6.14,6.14,0,0,1,1.49-.18,6,6,0,0,1,2.34.44A5.72,5.72,0,0,1,175,22.72L176.08,21a6.25,6.25,0,0,0-2.29-1.5,8.17,8.17,0,0,0-3-.51,7.88,7.88,0,0,0-2.92.51,4.42,4.42,0,0,0-2,1.47,3.78,3.78,0,0,0-.74,2.36,3.22,3.22,0,0,0,.54,1.91,4.09,4.09,0,0,0,1.58,1.26,17.74,17.74,0,0,0,2.56.95c.83.22,1.55.42,2.15.6a4.09,4.09,0,0,1,1.39.66,1.44,1.44,0,0,1,.5,1.2,1.85,1.85,0,0,1-1,1.69,4.82,4.82,0,0,1-2.48.57,6.92,6.92,0,0,1-2.6-.51A8.44,8.44,0,0,1,165.3,30l-1,1.74a7.39,7.39,0,0,0,2.77,1.82,9.54,9.54,0,0,0,3.44.61A7,7,0,0,0,174.73,33a3.78,3.78,0,0,0,1.58-3.23,3,3,0,0,0-.68-2.1A4.93,4.93,0,0,0,173.72,26.42Z" transform="translate(0 0)"/><path class="cls-1" d="M185.47,31.6a3.49,3.49,0,0,1-1.35.26,1.74,1.74,0,0,1-1.13-.39,1.51,1.51,0,0,1-.53-1.17V21.16h3.29V19.22h-3.29V14.31H180v4.91h-2v1.94h2v9.91a3.11,3.11,0,0,0,.45,1.73,2.76,2.76,0,0,0,1.22,1,4.27,4.27,0,0,0,1.66.32,6.56,6.56,0,0,0,1.5-.17,7.91,7.91,0,0,0,1.24-.39l.84-.37-.59-2C186.16,31.31,185.89,31.43,185.47,31.6Z" transform="translate(0 0)"/><path class="cls-1" d="M199.32,27.65a4.89,4.89,0,0,0-1.9-1.23c-.82-.32-1.78-.63-2.89-1-.72-.22-1.33-.43-1.82-.61a3,3,0,0,1-1.13-.69,1.52,1.52,0,0,1-.38-1.1,1.74,1.74,0,0,1,.48-1.31,2.66,2.66,0,0,1,1.21-.64,6.28,6.28,0,0,1,1.5-.18,6.06,6.06,0,0,1,2.34.44,5.92,5.92,0,0,1,1.92,1.34L199.77,21a6.29,6.29,0,0,0-2.28-1.5,8.17,8.17,0,0,0-3-.51,7.84,7.84,0,0,0-2.92.51,4.45,4.45,0,0,0-2,1.47,3.77,3.77,0,0,0-.73,2.36,3.29,3.29,0,0,0,.53,1.91A4.16,4.16,0,0,0,191,26.5a17.91,17.91,0,0,0,2.57.95c.83.22,1.54.42,2.14.6a4.25,4.25,0,0,1,1.4.66,1.43,1.43,0,0,1,.49,1.2,1.85,1.85,0,0,1-1,1.69,4.79,4.79,0,0,1-2.48.57,6.87,6.87,0,0,1-2.59-.51A8.2,8.2,0,0,1,189,30l-1,1.74a7.27,7.27,0,0,0,2.76,1.82,9.56,9.56,0,0,0,3.45.61A6.91,6.91,0,0,0,198.42,33,3.78,3.78,0,0,0,200,29.75,3,3,0,0,0,199.32,27.65Z" transform="translate(0 0)"/><path class="cls-1" d="M38.43,4.84C30.79-.63,22.48-1.51,14,2.43,6.41,5.91,2,12,.38,20.16.2,21.07.12,22,0,22.91v2.64l.18,1.63a23.39,23.39,0,0,0,3.49,10A24.1,24.1,0,0,0,16.23,47.26c1.19.43,1.95-.09,1.94-1.36s0-2.3,0-3.45a2.79,2.79,0,0,0,0-.32c-.72.07-1.41.19-2.09.21a6.25,6.25,0,0,1-4.8-1.67,7.61,7.61,0,0,1-1.49-2.49,6.41,6.41,0,0,0-2.39-2.91,2.65,2.65,0,0,1-.58-.47c-.14-.17-.35-.46-.3-.58A.78.78,0,0,1,7,33.87,4.56,4.56,0,0,1,8.46,34a5.21,5.21,0,0,1,2.66,2.15A8.78,8.78,0,0,0,12.67,38c1.45,1.19,3.12,1.12,4.83.6.48-.15.84-.35.87-.93a1.8,1.8,0,0,1,.2-.72c.32-.64.68-1.25,1-1.89L19.2,35A16.87,16.87,0,0,1,15,34a9.06,9.06,0,0,1-5.08-4.72A13.23,13.23,0,0,1,8.84,25,10.18,10.18,0,0,1,11,16.8a.6.6,0,0,0,.09-.49,9.1,9.1,0,0,1,.23-5.83c.08-.25.22-.38.46-.36a11.18,11.18,0,0,1,1.54.2,14.42,14.42,0,0,1,4.35,2.08,1,1,0,0,0,.83.15,22.59,22.59,0,0,1,11.2,0,1.11,1.11,0,0,0,.92-.16c1.14-.62,2.27-1.28,3.46-1.78a9.28,9.28,0,0,1,2.25-.47.58.58,0,0,1,.52.24A8.63,8.63,0,0,1,37.25,16a.9.9,0,0,0,.18,1,8.83,8.83,0,0,1,2,4.63,15.57,15.57,0,0,1-.13,4.47,10.53,10.53,0,0,1-2,4.92,10.3,10.3,0,0,1-6.1,3.57c-.85.2-1.72.31-2.61.47.23.3.45.56.63.85a6.79,6.79,0,0,1,.93,3.79c0,2,0,4,0,6a4.73,4.73,0,0,0,.05.75.92.92,0,0,0,.82.85,2.19,2.19,0,0,0,1-.1,43.19,43.19,0,0,0,4.3-2,23.33,23.33,0,0,0,9.28-9.85,23.76,23.76,0,0,0,2.27-15.25A23.12,23.12,0,0,0,38.43,4.84Z" transform="translate(0 0)"/></svg>